<?xml version="1.0" standalone="no"?>
<!DOCTYPE svg PUBLIC "-//W3C//DTD SVG 20010904//EN"
 "http://www.w3.org/TR/2001/REC-SVG-20010904/DTD/svg10.dtd">
<svg version="1.0" xmlns="http://www.w3.org/2000/svg"
 width="150.000000pt" height="150.000000pt" viewBox="0 0 150.000000 150.000000"
 preserveAspectRatio="xMidYMid meet">

<g transform="translate(0.000000,150.000000) scale(0.100000,-0.100000)"
fill="#000000" stroke="none">
<path d="M617 1471 c-61 -25 -124 -73 -166 -128 -33 -43 -71 -144 -71 -189 l0
-24 371 0 372 0 -7 46 c-15 115 -108 239 -213 286 -69 31 -219 36 -286 9z"/>
<path d="M275 1106 c-112 -36 -207 -122 -245 -224 -32 -84 -26 -215 13 -294
52 -105 165 -189 279 -204 l46 -6 7 43 c26 154 144 288 279 319 20 5 26 9 16
13 -8 3 -37 13 -64 23 -64 23 -157 110 -190 176 -14 29 -31 78 -38 110 -11 53
-14 58 -38 57 -14 0 -43 -6 -65 -13z"/>
<path d="M1125 1079 c-14 -83 -45 -148 -100 -207 -53 -58 -143 -112 -184 -112
-12 0 -21 -4 -21 -10 0 -5 9 -10 20 -10 41 0 137 -59 188 -114 52 -57 83 -124
97 -205 l7 -43 45 6 c123 17 249 117 293 233 29 76 25 213 -8 286 -47 105
-170 198 -285 213 l-45 6 -7 -43z"/>
<path d="M380 346 c0 -47 40 -152 76 -196 75 -95 175 -142 297 -142 100 1 172
29 246 98 64 59 106 138 117 218 l7 46 -372 0 -371 0 0 -24z"/>
</g>
</svg>
