<?xml version="1.0" standalone="no"?>
<!DOCTYPE svg PUBLIC "-//W3C//DTD SVG 20010904//EN"
 "http://www.w3.org/TR/2001/REC-SVG-20010904/DTD/svg10.dtd">
<svg version="1.0" xmlns="http://www.w3.org/2000/svg"
 width="2186.000000pt" height="1917.000000pt" viewBox="0 0 2186.000000 1917.000000"
 preserveAspectRatio="xMidYMid meet">

<g transform="translate(0.000000,1917.000000) scale(0.100000,-0.100000)"
fill="#000000" stroke="none">
<path d="M10708 15705 c-501 -72 -930 -339 -1209 -754 -167 -248 -270 -552
-286 -843 -3 -60 -9 -108 -12 -108 -3 0 -59 -5 -124 -10 -703 -58 -1290 -521
-1507 -1188 -61 -187 -82 -323 -82 -532 0 -134 4 -202 21 -292 140 -782 770
-1358 1562 -1428 63 -5 119 -10 125 -10 7 0 13 -40 17 -107 16 -292 119 -596
286 -844 603 -896 1852 -1031 2629 -284 315 303 494 690 528 1142 l7 92 66 6
c242 21 400 56 573 125 462 185 831 576 988 1049 72 215 84 296 84 551 0 255
-12 336 -84 551 -157 473 -526 864 -988 1049 -173 69 -331 104 -573 125 l-66
6 -7 92 c-25 340 -128 633 -318 902 -82 117 -288 323 -405 405 -216 152 -446
247 -715 296 -118 22 -390 27 -510 9z m1939 -1832 c-10 -222 -66 -425 -177
-648 -207 -415 -555 -717 -996 -865 -122 -40 -320 -80 -400 -80 -77 0 -47 -17
42 -24 250 -19 539 -123 769 -277 261 -175 445 -384 585 -664 111 -223 167
-426 177 -647 l6 -118 -1722 0 -1721 0 0 35 c0 62 21 227 40 323 133 644 655
1172 1304 1317 65 14 156 29 202 32 46 3 84 9 84 13 0 4 -38 10 -84 13 -97 7
-289 48 -391 84 -38 13 -128 53 -200 89 -466 231 -811 675 -915 1176 -19 96
-40 261 -40 323 l0 35 1721 0 1722 0 -6 -117z"/>
<path d="M14100 7060 c-483 -60 -912 -265 -1216 -582 -243 -253 -383 -531
-451 -893 -26 -141 -24 -454 5 -610 74 -395 263 -742 555 -1021 551 -526 1353
-650 2087 -323 l85 38 3 370 c1 204 0 371 -3 371 -2 0 -39 -23 -82 -51 -103
-67 -276 -151 -388 -188 -266 -87 -542 -93 -774 -15 -328 110 -597 384 -711
722 -139 415 -29 895 274 1198 172 172 387 278 650 319 151 24 406 17 521 -14
147 -39 322 -138 451 -255 29 -25 55 -46 58 -46 3 0 5 172 4 382 l-3 382 -45
28 c-106 66 -340 144 -519 175 -106 18 -399 25 -501 13z"/>
<path d="M3450 5295 l0 -1725 375 0 375 0 2 1146 3 1147 524 -1142 c288 -627
527 -1141 530 -1141 4 0 232 515 506 1144 l500 1145 3 -1150 2 -1149 400 0
400 0 0 1725 0 1725 -538 0 -538 0 -359 -885 c-197 -487 -362 -882 -366 -878
-5 5 -176 402 -381 883 l-374 875 -532 3 -532 2 0 -1725z"/>
<path d="M7450 5295 l0 -1725 1000 0 1000 0 0 295 0 295 -610 0 -610 0 0 435
0 435 585 0 585 0 0 295 0 295 -585 0 -585 0 0 395 0 395 610 0 610 0 0 305 0
305 -1000 0 -1000 0 0 -1725z"/>
<path d="M9790 5295 l0 -1725 390 0 390 0 2 916 3 916 620 -898 c341 -494 627
-906 635 -916 14 -17 38 -18 426 -16 l411 3 -504 719 -504 720 87 43 c230 114
387 289 465 516 47 140 62 229 62 387 0 125 -3 158 -26 242 -95 354 -356 640
-687 751 -184 62 -155 60 -997 64 l-773 4 0 -1726z m1350 1122 c232 -68 360
-236 360 -472 0 -193 -109 -366 -281 -448 -103 -49 -160 -57 -421 -57 l-228 0
0 501 0 501 258 -5 c195 -3 270 -8 312 -20z"/>
<path d="M15490 5295 l0 -1725 365 0 365 0 0 1725 0 1725 -365 0 -365 0 0
-1725z"/>
<path d="M17362 6938 c-799 -1127 -1064 -1511 -1056 -1528 5 -11 290 -429 634
-929 l625 -910 424 0 423 -1 -18 28 c-10 15 -294 429 -631 920 -337 491 -613
897 -613 901 0 5 246 355 546 777 301 423 555 781 566 797 l19 27 -430 0 -430
0 -59 -82z"/>
</g>
</svg>
